<svg xmlns="http://www.w3.org/2000/svg" xmlns:xlink="http://www.w3.org/1999/xlink" viewBox="0 0 1280 1280"><defs><style>.cls-1{isolation:isolate;}.cls-2{fill:url(#linear-gradient);}.cls-3{fill:url(#linear-gradient-2);}.cls-4,.cls-5{fill:#231f20;}.cls-4{opacity:0.3;}.cls-4,.cls-5,.cls-7{mix-blend-mode:overlay;}.cls-5{opacity:0.6;}.cls-6{fill:#fff;}.cls-7{opacity:0.4;}.cls-8{fill:#0098b5;}</style><linearGradient id="linear-gradient" x1="197.62" y1="1114.36" x2="1169.26" y2="68.7" gradientUnits="userSpaceOnUse"><stop offset="0" stop-color="#b1b7c2"/><stop offset="1" stop-color="#fff"/></linearGradient><linearGradient id="linear-gradient-2" x1="-9.88" y1="1245.86" x2="913.69" y2="331.96" gradientUnits="userSpaceOnUse"><stop offset="0" stop-color="#0032c3"/><stop offset="0.42" stop-color="#0077ba"/><stop offset="0.81" stop-color="#00b1b2"/><stop offset="1" stop-color="#00c8af"/></linearGradient></defs><title>xerobiz-hero</title><g class="cls-1"><g id="Layer_1" data-name="Layer 1"><path class="cls-2" d="M425.21,166.45C529.61,52,1130.26,419,1158.07,669.24S559.29,1315.78,379.51,1147C223.51,1000.58,141.58,477.3,425.21,166.45Z"/><path class="cls-3" d="M649.7,1160C499.19,1186.26,81.48,675.52,149.92,465.49s542-299,840.39-119.3C1310.63,539.06,904.69,1115.61,649.7,1160Z"/><path class="cls-4" d="M894.41,440c168.61,72.73,72.28,461.11-50.65,557.31-129.48,101.34-557.33,56.3-575-321.83C260.72,503.72,528.64,282.16,894.41,440Z"/><path class="cls-5" d="M894.41,422.6c168.61,72.73,72.28,461.11-50.65,557.32-129.48,101.33-557.33,56.29-575-321.83C260.72,486.38,528.64,264.81,894.41,422.6Z"/><path class="cls-6" d="M894.41,401.63C1063,474.36,966.69,862.74,843.76,959c-129.48,101.33-557.33,56.29-575-321.84C260.72,465.4,528.64,243.84,894.41,401.63Z"/><path class="cls-6" d="M894.41,390.66C1063,463.39,966.69,851.77,843.76,948c-129.48,101.34-557.33,56.3-575-321.83C260.72,454.44,528.64,232.88,894.41,390.66Z"/><g class="cls-7"><path class="cls-6" d="M671.79,996c-95.9,0-191.49-30.66-262.26-84.11C322.2,846,273,747.16,267.39,626.22c-2.61-55.78,24-117.27,73.12-168.7,74.11-77.67,186.82-122.21,309.21-122.21,79.51,0,162,18.2,245.23,54.1,48.54,20.93,79.09,70,88.37,141.81,18.3,141.76-50.41,348.72-138.71,417.84C806.46,978.91,743.47,996,671.79,996Zm-22.07-658c-121.65,0-233.64,44.23-307.24,121.36-48.56,50.89-74.93,111.64-72.35,166.68C282,879.75,480.4,993.29,671.79,993.29c71.08,0,133.46-16.91,171.13-46.39C930.61,878.28,998.8,672.55,980.6,531.57c-9.14-70.83-39.13-119.12-86.73-139.65C811,356.17,728.85,338.05,649.72,338.05Z"/></g><path class="cls-8" d="M409.14,676.11h-1.56L388.47,716H368.06l23.4-46-21.58-43.68h20.28l17.29,37h1.95l17.29-37H447L425.39,670l23.4,46H428.25Z"/><path class="cls-8" d="M518,700.55l.91,14.56q-12.23,1.3-41.6,1.3-9,0-14.3-4.88t-5.46-13.19V644q.13-8.32,5.46-13.2t14.3-4.87q29.39,0,41.6,1.3L518,641.92H483.5q-3.25,0-4.68,1.56t-1.43,5.07V662.2h35.75v14.3H477.39v17.29q0,3.65,1.43,5.2t4.68,1.56Z"/><path class="cls-8" d="M603.88,716H583l-6.76-27.43c-.87-2.86-2-4.83-3.44-5.92a10.11,10.11,0,0,0-6.18-1.62l-13.91-.13V716h-19.5v-89.7q12.09-1.17,34.19-1.17,18.07,0,25.61,5.72t7.54,20.8q0,9.89-4,15.47t-13.2,6.76v.65q10.27,2.34,12.74,13.52Zm-51.22-50.31H567q7.8,0,10.66-2.67T580.48,653q0-7.41-2.79-10T567,640.36l-14.3.13Z"/><path class="cls-8" d="M621.88,634.57q8.39-9.95,30-9.94t30,9.94q8.45,9.95,8.45,36.6t-8.45,36.59q-8.45,9.94-30,10t-30-10q-8.39-9.94-8.38-36.59T621.88,634.57ZM665.69,647q-3.71-6.37-13.84-6.37T638,647q-3.71,6.38-3.7,24.18t3.7,24.18q3.71,6.38,13.85,6.37t13.84-6.37q3.72-6.37,3.71-24.18T665.69,647Z"/><path class="cls-8" d="M750.39,669.22v.52q9.75.91,13.84,6.82t4.1,17.1q0,13.51-6.31,18.46t-22,4.94q-20.41,0-31.59-1v-89.7q9.75-1,27.69-1,16.63,0,23.07,4.87t6.44,18.53q0,9.75-3.64,14.75T750.39,669.22Zm-33.67-3h21.19q11-.13,15.21-3.51t4.16-13.13q0-10.14-4.62-13.59t-16.83-3.44q-14.31,0-19.11.13Zm0,6.63v36.66q10.92.26,22.23.26,11.82,0,16.25-3.51t4.42-13.78q0-11.31-4.68-15.34t-17-4.29Z"/><path class="cls-8" d="M797.06,716h-8.45v-89.7h8.45Z"/><path class="cls-8" d="M876.1,708.74V716H815.65v-7.28l50.18-75.14H816.17v-7.28h59.15v7.28l-50.18,75.14Z"/></g></g></svg>