<svg xmlns="http://www.w3.org/2000/svg" xmlns:xlink="http://www.w3.org/1999/xlink" viewBox="0 0 1280 1280"><defs><style>.cls-1{isolation:isolate;}.cls-2{fill:#fff;}.cls-3{fill:#f1f0f0;}.cls-4{fill:url(#linear-gradient);}.cls-5{fill:url(#linear-gradient-2);}.cls-6,.cls-7{fill:#231f20;}.cls-6{opacity:0.3;}.cls-6,.cls-7,.cls-8{mix-blend-mode:overlay;}.cls-7{opacity:0.6;}.cls-8{opacity:0.4;}.cls-9{fill:#0098b5;}</style><linearGradient id="linear-gradient" x1="197.62" y1="1114.36" x2="1169.26" y2="68.7" gradientUnits="userSpaceOnUse"><stop offset="0" stop-color="#b1b7c2"/><stop offset="1" stop-color="#fff"/></linearGradient><linearGradient id="linear-gradient-2" x1="-9.88" y1="1245.86" x2="913.69" y2="331.96" gradientUnits="userSpaceOnUse"><stop offset="0" stop-color="#0032c3"/><stop offset="0.42" stop-color="#0077ba"/><stop offset="0.81" stop-color="#00b1b2"/><stop offset="1" stop-color="#00c8af"/></linearGradient></defs><title>xerobiz-icon</title><g class="cls-1"><g id="bg"><rect class="cls-2" width="1280" height="1280"/></g><g id="Layer_1" data-name="Layer 1"><g id="stripes"><polygon class="cls-3" points="22.63 -883.73 23.11 -883.25 441.03 -465.33 442.49 -463.87 442.49 -463.87 443.95 -462.41 862.35 -44.01 862.35 -44.01 1280.75 374.4 1281.48 375.13 1282.21 375.86 1283.67 377.31 1298.21 391.86 1298.21 377.87 1289.21 368.87 1289.21 368.86 870.81 -49.54 869.35 -51 869.35 -51 867.89 -52.46 449.49 -470.86 449.49 -470.86 31.08 -889.27 30.11 -890.24 29.62 -890.73 28.17 -892.18 17.15 -903.2 3.16 -903.2 22.63 -883.73"/><polygon class="cls-3" points="580.98 -605.28 582.44 -603.82 1002.31 -183.96 1002.79 -183.48 1298.21 111.94 1298.21 97.96 1010.76 -189.5 1009.79 -190.47 1009.3 -190.96 1007.85 -192.41 590.9 -609.35 590.9 -609.36 589.44 -610.82 297.06 -903.2 283.07 -903.2 580.98 -605.28 580.98 -605.28"/><polygon class="cls-3" points="512.47 -533.85 513.92 -532.39 932.33 -113.99 932.33 -113.98 1298.21 251.9 1298.21 237.91 940.78 -119.52 939.33 -120.98 939.33 -120.98 937.87 -122.44 519.46 -540.84 518.01 -542.29 157.1 -903.2 143.11 -903.2 511.01 -535.3 512.47 -533.85"/><polygon class="cls-3" points="1007.85 647.32 590.9 230.37 590.9 230.37 589.44 228.91 169.58 -190.96 168.12 -192.41 -19.96 -380.49 -19.96 -366.5 162.58 -183.96 164.04 -182.51 580.98 234.44 580.98 234.44 582.44 235.9 1000.85 654.31 1002.3 655.76 1003.76 657.22 1298.21 951.67 1298.21 937.68 1009.3 648.77 1007.85 647.32"/><polygon class="cls-3" points="867.89 787.26 449.49 368.87 449.49 368.86 31.08 -49.54 30.11 -50.52 29.63 -51 28.17 -52.46 -19.96 -100.58 -19.96 -86.59 22.63 -44.01 23.11 -43.52 441.03 374.4 442.49 375.86 442.49 375.86 443.95 377.31 861.87 795.23 862.35 795.72 1280.75 1214.13 1282.21 1215.58 1283.67 1217.04 1298.21 1231.58 1298.21 1217.59 1290.67 1210.04 1289.21 1208.58 1287.75 1207.13 869.35 788.72 867.89 787.26"/><polygon class="cls-3" points="937.87 717.29 937.87 717.29 520.92 300.35 519.46 298.88 518.01 297.43 101.06 -119.52 101.06 -119.52 99.6 -120.98 -19.96 -240.54 -19.96 -226.55 91.15 -115.45 91.14 -115.45 92.61 -113.98 511.01 304.42 512.47 305.88 932.33 725.74 933.79 727.2 933.79 727.2 1298.21 1091.63 1298.21 1077.63 939.33 718.74 937.87 717.29"/><polygon class="cls-3" points="797.91 857.24 379.51 438.84 379.51 438.84 -19.96 39.37 -19.96 53.36 371.05 444.38 372.51 445.83 790.92 864.24 792.37 865.7 1210.78 1284.1 1212.23 1285.56 1213.69 1287.02 1298.21 1371.54 1298.21 1357.54 1220.69 1280.02 1219.23 1278.56 1217.78 1277.1 799.37 858.7 797.91 857.24"/><polygon class="cls-3" points="799.37 18.98 799.37 18.98 797.91 17.52 379.51 -400.88 379.51 -400.88 -19.96 -800.35 -19.96 -786.36 371.05 -395.35 372.51 -393.89 372.51 -393.89 373.97 -392.43 792.37 25.97 792.38 25.97 1210.78 444.38 1212.23 445.83 1212.24 445.83 1213.69 447.29 1298.21 531.81 1298.21 517.82 1219.23 438.84 1219.23 438.84 800.83 20.43 799.37 18.98"/><polygon class="cls-3" points="1080.74 580.25 1079.28 578.79 660.87 160.39 659.41 158.93 239.56 -260.93 238.1 -262.39 238.09 -262.39 -19.96 -520.44 -19.96 -506.45 232.56 -253.94 234.01 -252.48 234.02 -252.48 650.96 164.47 652.42 165.93 1070.82 584.33 1070.82 584.33 1072.28 585.79 1298.21 811.72 1298.21 797.73 1080.74 580.26 1080.74 580.25"/><polygon class="cls-3" points="1149.25 508.82 730.85 90.41 729.39 88.95 729.39 88.95 727.94 87.5 309.53 -330.9 309.53 -330.91 -19.96 -660.4 -19.96 -646.41 301.08 -325.37 302.53 -323.91 302.53 -323.91 303.99 -322.45 722.4 95.94 722.4 95.95 1140.8 514.35 1142.26 515.81 1142.26 515.81 1143.71 517.27 1298.21 671.77 1298.21 657.78 1149.26 508.82 1149.25 508.82"/><polygon class="cls-3" points="1080.74 1419.97 1079.28 1418.52 659.42 998.65 657.96 997.19 239.55 578.79 239.07 578.31 -19.96 319.28 -19.96 333.27 231.1 584.33 232.56 585.79 650.96 1004.19 652.42 1005.65 653.88 1007.11 1070.82 1424.06 1070.82 1424.06 1072.28 1425.52 1298.21 1651.45 1298.21 1637.45 1080.74 1419.98 1080.74 1419.97"/><polygon class="cls-3" points="1149.26 1348.54 1147.8 1347.08 729.39 928.68 727.94 927.22 309.53 508.82 309.53 508.82 -19.96 179.33 -19.96 193.32 301.08 514.35 302.54 515.81 720.94 934.22 722.39 935.68 1140.8 1354.08 1142.26 1355.54 1143.71 1356.99 1298.21 1511.49 1298.21 1497.5 1150.71 1350 1149.26 1348.54"/><polygon class="cls-3" points="1009.3 1488.49 1007.85 1487.03 590.9 1070.09 590.9 1070.09 589.44 1068.63 169.57 648.77 168.85 648.05 -19.96 459.24 -19.96 473.23 161.12 654.31 162.58 655.77 162.58 655.77 164.04 657.22 580.98 1074.17 580.98 1074.17 582.44 1075.63 1002.31 1495.49 1298.21 1791.4 1298.21 1777.4 1010.76 1489.95 1009.3 1488.49"/><polygon class="cls-3" points="869.35 1628.45 867.89 1626.99 450.94 1210.04 449.49 1208.58 448.03 1207.13 29.63 788.72 28.17 787.26 -19.96 739.14 -19.96 753.13 22.63 795.71 22.63 795.72 441.03 1214.13 442.49 1215.58 860.89 1633.99 862.35 1635.44 863.81 1636.9 1280.75 2053.85 1282.21 2055.31 1283.67 2056.76 1298.21 2071.31 1298.21 2057.31 1290.67 2049.76 1289.21 2048.31 1287.75 2046.85 870.81 1629.9 869.35 1628.45"/><polygon class="cls-3" points="939.33 1558.47 937.87 1557.01 519.47 1138.61 518.01 1137.15 99.6 718.75 98.14 717.29 98.14 717.29 -19.96 599.19 -19.96 613.18 92.61 725.74 94.06 727.2 94.06 727.2 511.01 1144.15 512.47 1145.61 930.87 1564.01 932.33 1565.47 933.79 1566.92 1298.21 1931.35 1298.21 1917.36 940.78 1559.93 939.33 1558.47"/><polygon class="cls-3" points="799.37 1698.42 797.91 1696.97 380.97 1280.02 379.51 1278.56 378.05 1277.1 -19.96 879.09 -19.96 893.09 371.05 1284.1 372.51 1285.56 373.97 1287.02 790.92 1703.96 792.37 1705.42 793.83 1706.88 1210.78 2123.82 1212.23 2125.28 1213.69 2126.74 1298.21 2211.26 1298.21 2197.26 1220.69 2119.74 1219.23 2118.28 1217.78 2116.83 800.83 1699.88 799.37 1698.42"/><polygon class="cls-3" points="1080.74 2259.7 1079.28 2258.24 659.42 1838.38 657.96 1836.92 241.01 1419.97 239.56 1418.52 -19.96 1159 -19.96 1173 231.1 1424.06 232.56 1425.52 650.96 1843.92 652.42 1845.38 653.88 1846.83 1070.82 2263.78 1070.82 2263.78 1072.28 2265.24 1298.21 2491.17 1298.21 2477.17 1080.74 2259.7 1080.74 2259.7"/><polygon class="cls-3" points="1149.26 2188.26 1147.8 2186.8 730.85 1769.86 729.39 1768.4 727.94 1766.94 310.99 1350 309.53 1348.54 308.07 1347.08 -19.96 1019.05 -19.96 1033.05 301.08 1354.08 302.53 1355.54 303.99 1356.99 720.94 1773.94 722.4 1775.4 723.85 1776.86 1140.8 2193.8 1142.26 2195.26 1143.71 2196.72 1298.21 2351.22 1298.21 2337.22 1150.71 2189.72 1149.26 2188.26"/></g><path class="cls-4" d="M425.21,166.45C529.61,52,1130.26,419,1158.07,669.24S559.29,1315.78,379.51,1147C223.51,1000.58,141.58,477.3,425.21,166.45Z"/><path class="cls-5" d="M649.7,1160C499.19,1186.26,81.48,675.52,149.92,465.49s542-299,840.39-119.3C1310.63,539.06,904.69,1115.61,649.7,1160Z"/><path class="cls-6" d="M894.41,440c168.61,72.73,72.28,461.11-50.65,557.31-129.48,101.34-557.33,56.3-575-321.83C260.72,503.72,528.64,282.16,894.41,440Z"/><path class="cls-7" d="M894.41,422.6c168.61,72.73,72.28,461.11-50.65,557.32-129.48,101.33-557.33,56.29-575-321.83C260.72,486.38,528.64,264.81,894.41,422.6Z"/><path class="cls-2" d="M894.41,401.63C1063,474.36,966.69,862.74,843.76,959c-129.48,101.33-557.33,56.29-575-321.84C260.72,465.4,528.64,243.84,894.41,401.63Z"/><path class="cls-2" d="M894.41,390.66C1063,463.39,966.69,851.77,843.76,948c-129.48,101.34-557.33,56.3-575-321.83C260.72,454.44,528.64,232.88,894.41,390.66Z"/><g class="cls-8"><path class="cls-2" d="M671.79,996c-95.9,0-191.49-30.66-262.26-84.11C322.2,846,273,747.16,267.39,626.22c-2.61-55.78,24-117.27,73.12-168.7,74.11-77.67,186.82-122.21,309.21-122.21,79.51,0,162,18.2,245.23,54.1,48.54,20.93,79.09,70,88.37,141.81,18.3,141.76-50.41,348.72-138.71,417.84C806.46,978.91,743.47,996,671.79,996Zm-22.07-658c-121.65,0-233.64,44.23-307.24,121.36-48.56,50.89-74.93,111.64-72.35,166.68C282,879.75,480.4,993.29,671.79,993.29c71.08,0,133.46-16.91,171.13-46.39C930.61,878.28,998.8,672.55,980.6,531.57c-9.14-70.83-39.13-119.12-86.73-139.65C811,356.17,728.85,338.05,649.72,338.05Z"/></g><path class="cls-9" d="M409.14,676.11h-1.56L388.47,716H368.06l23.4-46-21.58-43.68h20.28l17.29,37h1.95l17.29-37H447L425.39,670l23.4,46H428.25Z"/><path class="cls-9" d="M518,700.55l.91,14.56q-12.23,1.3-41.6,1.3-9,0-14.3-4.88t-5.46-13.19V644q.13-8.32,5.46-13.2t14.3-4.87q29.39,0,41.6,1.3L518,641.92H483.5q-3.25,0-4.68,1.56t-1.43,5.07V662.2h35.75v14.3H477.39v17.29q0,3.65,1.43,5.2t4.68,1.56Z"/><path class="cls-9" d="M603.88,716H583l-6.76-27.43c-.87-2.86-2-4.83-3.44-5.92a10.11,10.11,0,0,0-6.18-1.62l-13.91-.13V716h-19.5v-89.7q12.09-1.17,34.19-1.17,18.07,0,25.61,5.72t7.54,20.8q0,9.89-4,15.47t-13.2,6.76v.65q10.27,2.34,12.74,13.52Zm-51.22-50.31H567q7.8,0,10.66-2.67T580.48,653q0-7.41-2.79-10T567,640.36l-14.3.13Z"/><path class="cls-9" d="M621.88,634.57q8.39-9.95,30-9.94t30,9.94q8.45,9.95,8.45,36.6t-8.45,36.59q-8.45,9.94-30,10t-30-10q-8.39-9.94-8.38-36.59T621.88,634.57ZM665.69,647q-3.71-6.37-13.84-6.37T638,647q-3.71,6.38-3.7,24.18t3.7,24.18q3.71,6.38,13.85,6.37t13.84-6.37q3.72-6.37,3.71-24.18T665.69,647Z"/><path class="cls-9" d="M750.39,669.22v.52q9.75.91,13.84,6.82t4.1,17.1q0,13.51-6.31,18.46t-22,4.94q-20.41,0-31.59-1v-89.7q9.75-1,27.69-1,16.63,0,23.07,4.87t6.44,18.53q0,9.75-3.64,14.75T750.39,669.22Zm-33.67-3h21.19q11-.13,15.21-3.51t4.16-13.13q0-10.14-4.62-13.59t-16.83-3.44q-14.31,0-19.11.13Zm0,6.63v36.66q10.92.26,22.23.26,11.82,0,16.25-3.51t4.42-13.78q0-11.31-4.68-15.34t-17-4.29Z"/><path class="cls-9" d="M797.06,716h-8.45v-89.7h8.45Z"/><path class="cls-9" d="M876.1,708.74V716H815.65v-7.28l50.18-75.14H816.17v-7.28h59.15v7.28l-50.18,75.14Z"/></g></g></svg>